<svg width="25" height="24" viewBox="0 0 25 24" fill="none" xmlns="http://www.w3.org/2000/svg">
<path d="M14.765 2.88002L10.075 2.14002C6.16499 1.53002 4.35499 2.85002 3.73499 6.76002L2.99499 11.45C2.59499 14.01 3.01499 15.67 4.46499 16.68C5.22499 17.22 6.26499 17.58 7.61499 17.79L12.305 18.53C16.215 19.14 18.025 17.82 18.645 13.91L19.375 9.22002C19.495 8.45002 19.545 7.76002 19.505 7.15002C19.375 4.65002 17.905 3.37002 14.765 2.88002ZM9.11499 9.35002C7.94499 9.35002 6.99499 8.40002 6.99499 7.24002C6.99499 6.07002 7.94499 5.12002 9.11499 5.12002C10.275 5.12002 11.225 6.07002 11.225 7.24002C11.225 8.40002 10.275 9.35002 9.11499 9.35002Z" fill="#0056D2"/>
<path d="M21.3746 13.4701L19.8746 17.9801C18.6246 21.7401 16.6246 22.7401 12.8646 21.4901L8.35465 19.9901C6.94465 19.5201 5.92465 18.9401 5.26465 18.2101C5.89465 18.4601 6.62465 18.6501 7.45465 18.7801L12.1546 19.5201C12.7946 19.6201 13.3946 19.6701 13.9546 19.6701C17.2546 19.6701 19.0246 17.8901 19.6346 14.0601L20.3646 9.37006C20.4646 8.79006 20.5046 8.28006 20.5046 7.81006C22.0246 9.06006 22.2446 10.8401 21.3746 13.4701Z" fill="#0056D2"/>
</svg>
