<svg width="12" height="12" viewBox="0 0 12 12" fill="none" xmlns="http://www.w3.org/2000/svg">
<path d="M8.50988 4.494C9.23332 4.99377 10.1196 5.28782 11.0768 5.28782V3.50778C10.8956 3.50782 10.7149 3.48956 10.5377 3.45328V4.85442C9.58059 4.85442 8.69445 4.56037 7.97081 4.06064V7.69318C7.97081 9.51036 6.44648 10.9834 4.56622 10.9834C3.86466 10.9834 3.21258 10.7784 2.6709 10.4269C3.28914 11.0378 4.15132 11.4167 5.10518 11.4167C6.98554 11.4167 8.50996 9.94372 8.50996 8.12646V4.494H8.50988ZM9.17488 2.69816C8.80516 2.30782 8.5624 1.80337 8.50988 1.24567V1.01672H7.99904C8.12762 1.72555 8.56621 2.33113 9.17488 2.69816ZM3.86016 9.03242C3.65359 8.77067 3.54196 8.45048 3.54246 8.12126C3.54246 7.29015 4.23969 6.61628 5.09987 6.61628C5.26018 6.61624 5.41952 6.63996 5.5723 6.6868V4.86698C5.39376 4.84334 5.21357 4.8333 5.03346 4.83698V6.25344C4.88057 6.2066 4.72115 6.1828 4.5608 6.18295C3.70062 6.18295 3.00344 6.85675 3.00344 7.68797C3.00344 8.2757 3.35193 8.78454 3.86016 9.03242Z" fill="#FF004F"/>
<path d="M7.97046 4.0606C8.6941 4.56033 9.58024 4.85438 10.5374 4.85438V3.45324C10.0031 3.34326 9.53013 3.07345 9.17452 2.69816C8.56582 2.33109 8.12727 1.72551 7.99868 1.01672H6.65684V8.12639C6.65381 8.95523 5.95778 9.62636 5.09944 9.62636C4.59363 9.62636 4.14428 9.39335 3.85969 9.03242C3.3515 8.78454 3.00301 8.27567 3.00301 7.68801C3.00301 6.85686 3.70019 6.18299 4.56037 6.18299C4.72518 6.18299 4.88403 6.20779 5.03303 6.25348V4.83702C3.18581 4.8739 1.7002 6.33252 1.7002 8.12643C1.7002 9.02193 2.07015 9.83374 2.67058 10.4269C3.21226 10.7784 3.86434 10.9834 4.56591 10.9834C6.4462 10.9834 7.9705 9.51032 7.9705 7.69318V4.0606H7.97046Z" fill="white"/>
<path d="M10.5373 3.45321V3.07436C10.0556 3.07506 9.58324 2.94467 9.17449 2.6981C9.53633 3.08094 10.0128 3.34491 10.5373 3.45321ZM7.99865 1.0167C7.98638 0.948959 7.97696 0.880772 7.97042 0.812325V0.583374H6.1177V7.69312C6.11474 8.52184 5.41875 9.19297 4.56034 9.19297C4.30832 9.19297 4.07038 9.13516 3.85966 9.03243C4.14424 9.39333 4.5936 9.6263 5.0994 9.6263C5.95766 9.6263 6.65381 8.95524 6.65681 8.1264V1.0167H7.99865ZM5.03307 4.83699V4.43367C4.87826 4.41322 4.72218 4.40296 4.56591 4.40304C2.68547 4.403 1.16113 5.87608 1.16113 7.69312C1.16113 8.83229 1.76022 9.83625 2.67059 10.4268C2.07015 9.83368 1.7002 9.02183 1.7002 8.12637C1.7002 6.3325 3.18577 4.87388 5.03307 4.83699Z" fill="#00F2EA"/>
</svg>
