<svg width="12" height="12" viewBox="0 0 12 12" fill="none" xmlns="http://www.w3.org/2000/svg">
<g clip-path="url(#clip0_247_3131)">
<path d="M11.7076 5.92221C11.7076 7.35732 11.4578 8.52142 11.1496 8.52142C10.8415 8.52142 10.5918 7.35763 10.5918 5.92221C10.5918 4.48679 10.8416 3.323 11.1496 3.323C11.4577 3.323 11.7076 4.48668 11.7076 5.92221Z" fill="white"/>
<path d="M10.2842 5.92229C10.2842 7.52441 9.57395 8.82371 8.69778 8.82371C7.8216 8.82371 7.11133 7.52441 7.11133 5.92229C7.11133 4.32017 7.82149 3.02087 8.69767 3.02087C9.57384 3.02087 10.2841 4.31975 10.2841 5.92229" fill="white"/>
<path d="M6.80368 5.92228C6.80368 7.62434 5.38314 9.00413 3.6309 9.00413C1.87866 9.00413 0.458008 7.62403 0.458008 5.92228C0.458008 4.22053 1.87855 2.84033 3.6309 2.84033C5.38324 2.84033 6.80368 4.22022 6.80368 5.92228Z" fill="white"/>
</g>
<defs>
<clipPath id="clip0_247_3131">
<rect width="11.25" height="10.8333" fill="white" transform="translate(0.458008 0.583374)"/>
</clipPath>
</defs>
</svg>
