<svg width="12" height="12" viewBox="0 0 12 12" fill="none" xmlns="http://www.w3.org/2000/svg">
<g clip-path="url(#clip0_247_3143)">
<path d="M6.08301 1.5588C7.58594 1.5588 7.76392 1.56514 8.35498 1.59054C8.9043 1.61381 9.20093 1.70268 9.39868 1.77673C9.66016 1.87406 9.84912 1.99255 10.0447 2.18087C10.2424 2.3713 10.3633 2.55115 10.4644 2.80294C10.5413 2.99337 10.6335 3.28113 10.6577 3.80798C10.6841 4.37927 10.6907 4.55066 10.6907 5.99581C10.6907 7.44307 10.6841 7.61446 10.6577 8.18363C10.6335 8.71261 10.5413 8.99825 10.4644 9.18868C10.3633 9.44047 10.2402 9.62244 10.0447 9.81075C9.84692 10.0012 9.66016 10.1176 9.39868 10.2149C9.20093 10.2889 8.9021 10.3778 8.35498 10.4011C7.76172 10.4265 7.58374 10.4328 6.08301 10.4328C4.58008 10.4328 4.4021 10.4265 3.81104 10.4011C3.26172 10.3778 2.96509 10.2889 2.76733 10.2149C2.50586 10.1176 2.31689 9.99906 2.12134 9.81075C1.92358 9.62032 1.80273 9.44047 1.70166 9.18868C1.62476 8.99825 1.53247 8.71049 1.5083 8.18363C1.48193 7.61235 1.47534 7.44096 1.47534 5.99581C1.47534 4.54854 1.48193 4.37716 1.5083 3.80798C1.53247 3.27901 1.62476 2.99337 1.70166 2.80294C1.80273 2.55115 1.92578 2.36918 2.12134 2.18087C2.31909 1.99044 2.50586 1.87406 2.76733 1.77673C2.96509 1.70268 3.26392 1.61381 3.81104 1.59054C4.4021 1.56514 4.58008 1.5588 6.08301 1.5588ZM6.08301 0.583374C4.55591 0.583374 4.36475 0.589722 3.76489 0.615112C3.16724 0.640503 2.75635 0.733602 2.40039 0.866903C2.02905 1.00655 1.71484 1.19063 1.40283 1.4932C1.08862 1.79366 0.897461 2.09623 0.752441 2.4517C0.614014 2.79659 0.517334 3.19014 0.490967 3.76567C0.4646 4.34542 0.458008 4.5295 0.458008 6.00004C0.458008 7.47058 0.4646 7.65466 0.490967 8.2323C0.517334 8.80782 0.614014 9.20349 0.752441 9.54626C0.897461 9.90385 1.08862 10.2064 1.40283 10.5069C1.71484 10.8073 2.02905 10.9935 2.39819 11.1311C2.75635 11.2644 3.16504 11.3575 3.7627 11.3829C4.36255 11.4082 4.55371 11.4146 6.08081 11.4146C7.60791 11.4146 7.79907 11.4082 8.39893 11.3829C8.99658 11.3575 9.40747 11.2644 9.76343 11.1311C10.1326 10.9935 10.4468 10.8073 10.7588 10.5069C11.0708 10.2064 11.2642 9.90385 11.407 9.54838C11.5454 9.20349 11.6421 8.80994 11.6685 8.23442C11.6948 7.65678 11.7014 7.4727 11.7014 6.00216C11.7014 4.53162 11.6948 4.34753 11.6685 3.7699C11.6421 3.19438 11.5454 2.79871 11.407 2.45593C11.2686 2.09623 11.0774 1.79366 10.7632 1.4932C10.4512 1.19275 10.137 1.00655 9.76782 0.869019C9.40967 0.735718 9.00098 0.642619 8.40332 0.617228C7.80127 0.589722 7.61011 0.583374 6.08301 0.583374Z" fill="white"/>
<path d="M6.08276 3.21765C4.48755 3.21765 3.19336 4.46391 3.19336 6.00004C3.19336 7.53617 4.48755 8.78243 6.08276 8.78243C7.67798 8.78243 8.97217 7.53617 8.97217 6.00004C8.97217 4.46391 7.67798 3.21765 6.08276 3.21765ZM6.08276 7.80489C5.04785 7.80489 4.2085 6.99662 4.2085 6.00004C4.2085 5.00346 5.04785 4.19519 6.08276 4.19519C7.11768 4.19519 7.95703 5.00346 7.95703 6.00004C7.95703 6.99662 7.11768 7.80489 6.08276 7.80489Z" fill="white"/>
<path d="M9.76123 3.10759C9.76123 3.46729 9.45801 3.75716 9.08667 3.75716C8.71314 3.75716 8.41211 3.46517 8.41211 3.10759C8.41211 2.74788 8.71533 2.45801 9.08667 2.45801C9.45801 2.45801 9.76123 2.75 9.76123 3.10759Z" fill="white"/>
</g>
<defs>
<clipPath id="clip0_247_3143">
<rect width="11.25" height="10.8333" fill="white" transform="translate(0.458008 0.583374)"/>
</clipPath>
</defs>
</svg>
