<svg width="25" height="24" viewBox="0 0 25 24" fill="none" xmlns="http://www.w3.org/2000/svg">
<path d="M16.625 8H8.625V16H16.625V8Z" fill="#0056D2"/>
<path d="M2.625 19C2.625 20.65 3.975 22 5.625 22C7.275 22 8.625 20.65 8.625 19V16H5.625C3.975 16 2.625 17.35 2.625 19Z" fill="#0056D2"/>
<path d="M5.625 2C3.975 2 2.625 3.35 2.625 5C2.625 6.65 3.975 8 5.625 8H8.625V5C8.625 3.35 7.275 2 5.625 2Z" fill="#0056D2"/>
<path d="M22.625 5C22.625 3.35 21.275 2 19.625 2C17.975 2 16.625 3.35 16.625 5V8H19.625C21.275 8 22.625 6.65 22.625 5Z" fill="#0056D2"/>
<path d="M19.625 16H16.625V19C16.625 20.65 17.975 22 19.625 22C21.275 22 22.625 20.65 22.625 19C22.625 17.35 21.275 16 19.625 16Z" fill="#0056D2"/>
</svg>
