<svg width="19" height="19" viewBox="0 0 19 19" fill="none" xmlns="http://www.w3.org/2000/svg">
<path d="M8.11452 10.1926H1.88015C1.49773 10.1926 1.1875 9.8826 1.1875 9.5C1.1875 9.1174 1.49773 8.80735 1.88015 8.80735H8.11452C8.49712 8.80735 8.80717 8.49712 8.80717 8.11471V1.88033C8.80735 1.49773 9.1174 1.1875 9.5 1.1875C9.8826 1.1875 10.1926 1.49773 10.1926 1.88015V8.11452C10.1926 9.26213 9.26231 10.1926 8.11452 10.1926ZM7.42188 6.72923V2.57298C7.42188 1.80778 6.80159 1.1875 6.0364 1.1875H2.57298C1.80778 1.1875 1.1875 1.80778 1.1875 2.57298V6.03658C1.1875 6.80159 1.80778 7.42188 2.57298 7.42188H3.95846C4.34105 7.42188 4.6511 7.11164 4.6511 6.72923C4.6511 6.34682 4.34087 6.03658 3.95846 6.03658H2.57298V2.57298H6.03658V6.72923C6.03658 7.11183 6.34663 7.42188 6.72923 7.42188C7.11183 7.42188 7.42188 7.11164 7.42188 6.72923ZM17.8125 6.0364V2.57298C17.8125 1.80778 17.1922 1.1875 16.427 1.1875H12.9636C12.1984 1.1875 11.5781 1.80778 11.5781 2.57298V3.95846C11.5781 4.34105 11.8884 4.6511 12.2708 4.6511C12.6534 4.6511 12.9634 4.34087 12.9634 3.95846V2.57298H16.427V6.03658H12.2708C11.8882 6.03658 11.5781 6.34682 11.5781 6.72923C11.5781 7.11164 11.8884 7.42188 12.2708 7.42188H16.427C17.1922 7.42188 17.8125 6.80159 17.8125 6.0364ZM7.42188 16.427V15.0415C7.42188 14.6589 7.11183 14.3489 6.72923 14.3489C6.34663 14.3489 6.03658 14.6591 6.03658 15.0415V16.427H2.57298V12.9636H6.72923C7.11183 12.9636 7.42188 12.6534 7.42188 12.271C7.42188 11.8885 7.11183 11.5781 6.72923 11.5781H2.57298C1.80778 11.5781 1.1875 12.1984 1.1875 12.9636V16.4272C1.1875 17.1922 1.80778 17.8125 2.57298 17.8125H6.03658C6.80159 17.8125 7.42188 17.1922 7.42188 16.427ZM17.8125 16.427V12.9636C17.8125 12.1986 17.1922 11.5781 16.427 11.5781H15.0415C14.6589 11.5781 14.3489 11.8884 14.3489 12.2708C14.3489 12.6532 14.6591 12.9634 15.0415 12.9634H16.427V16.427H12.9636V12.2708C12.9636 11.8882 12.6534 11.5781 12.271 11.5781C11.8884 11.5781 11.5783 11.8884 11.5783 12.2708V16.427C11.5783 17.192 12.1986 17.8125 12.9638 17.8125H16.4274C17.1922 17.8125 17.8125 17.1922 17.8125 16.427ZM10.1926 17.1199V12.2708C10.1926 11.8882 9.8826 11.5781 9.5 11.5781C9.1174 11.5781 8.80735 11.8884 8.80735 12.2708V17.1197C8.80735 17.5023 9.11759 17.8123 9.5 17.8123C9.8826 17.8125 10.1926 17.5023 10.1926 17.1199ZM17.8125 9.5C17.8125 9.1174 17.5023 8.80735 17.1199 8.80735H12.2708C11.8882 8.80735 11.5781 9.11759 11.5781 9.5C11.5781 9.88241 11.8884 10.1926 12.2708 10.1926H17.1197C17.5023 10.1926 17.8125 9.8826 17.8125 9.5Z" fill="white"/>
</svg>
