<svg width="25" height="24" viewBox="0 0 25 24" fill="none" xmlns="http://www.w3.org/2000/svg">
<path d="M19.505 7.1499C19.545 7.7599 19.495 8.4499 19.375 9.2199L18.645 13.9099C18.025 17.8199 16.215 19.1399 12.305 18.5299L7.61499 17.7899C6.26499 17.5799 5.22499 17.2199 4.46499 16.6799C3.01499 15.6699 2.59499 14.0099 2.99499 11.4499L3.73499 6.7599C4.35499 2.8499 6.16499 1.5299 10.075 2.1399L14.765 2.8799C17.905 3.3699 19.375 4.6499 19.505 7.1499Z" stroke="#808EA0" stroke-width="1.5" stroke-linecap="round" stroke-linejoin="round"/>
<path d="M21.3748 13.4699L19.8748 17.9799C18.6248 21.7399 16.6248 22.7399 12.8648 21.4899L8.35484 19.9899C6.08484 19.2399 4.82484 18.1999 4.46484 16.6799C5.22484 17.2199 6.26484 17.5799 7.61484 17.7899L12.3048 18.5299C16.2148 19.1399 18.0248 17.8199 18.6448 13.9099L19.3748 9.2199C19.4948 8.4499 19.5448 7.7599 19.5048 7.1499C21.8948 8.4199 22.4148 10.3399 21.3748 13.4699Z" stroke="#808EA0" stroke-width="1.5" stroke-linecap="round" stroke-linejoin="round"/>
<path d="M9.115 8.98C10.076 8.98 10.855 8.20098 10.855 7.24C10.855 6.27902 10.076 5.5 9.115 5.5C8.15402 5.5 7.375 6.27902 7.375 7.24C7.375 8.20098 8.15402 8.98 9.115 8.98Z" stroke="#808EA0" stroke-width="1.5" stroke-linecap="round" stroke-linejoin="round"/>
</svg>
