<svg width="25" height="24" viewBox="0 0 25 24" fill="none" xmlns="http://www.w3.org/2000/svg">
<path d="M12.125 2C9.505 2 7.375 4.13 7.375 6.75C7.375 9.32 9.385 11.4 12.005 11.49C12.085 11.48 12.165 11.48 12.225 11.49C12.245 11.49 12.255 11.49 12.275 11.49C12.285 11.49 12.285 11.49 12.295 11.49C14.855 11.4 16.865 9.32 16.875 6.75C16.875 4.13 14.745 2 12.125 2Z" fill="#0056D2"/>
<path d="M17.205 14.1499C14.415 12.2899 9.86496 12.2899 7.05496 14.1499C5.78496 14.9999 5.08496 16.1499 5.08496 17.3799C5.08496 18.6099 5.78496 19.7499 7.04496 20.5899C8.44496 21.5299 10.285 21.9999 12.125 21.9999C13.965 21.9999 15.805 21.5299 17.205 20.5899C18.465 19.7399 19.165 18.5999 19.165 17.3599C19.155 16.1299 18.465 14.9899 17.205 14.1499Z" fill="#0056D2"/>
</svg>
