<?xml version="1.0" standalone="no"?>
<!DOCTYPE svg PUBLIC "-//W3C//DTD SVG 20010904//EN"
 "http://www.w3.org/TR/2001/REC-SVG-20010904/DTD/svg10.dtd">
<svg version="1.0" xmlns="http://www.w3.org/2000/svg"
 width="3152.000000pt" height="3152.000000pt" viewBox="0 0 3152.000000 3152.000000"
 preserveAspectRatio="xMidYMid meet">
<metadata>
Created by potrace 1.14, written by Peter Selinger 2001-2017
</metadata>
<g transform="translate(0.000000,3152.000000) scale(0.100000,-0.100000)"
fill="#000000" stroke="none">
<path d="M2 15788 l3 -3173 540 0 540 1 2 2484 c1 1367 2 2487 3 2489 0 6 46
-44 77 -86 33 -45 54 -71 68 -87 6 -6 57 -69 115 -141 57 -71 109 -137 117
-145 7 -8 29 -35 49 -60 20 -25 43 -54 52 -65 10 -11 51 -63 92 -115 41 -52
81 -101 88 -108 7 -8 25 -30 40 -50 15 -21 29 -39 32 -42 3 -3 44 -52 90 -110
46 -58 89 -110 95 -117 5 -7 15 -18 20 -25 72 -91 179 -224 184 -228 3 -3 20
-23 36 -45 31 -42 53 -70 70 -89 6 -6 38 -45 70 -86 33 -41 62 -77 65 -80 3
-3 41 -50 85 -105 43 -55 84 -105 90 -112 5 -6 41 -51 80 -100 38 -48 78 -95
87 -104 10 -9 18 -20 18 -23 0 -7 76 -103 91 -116 3 -3 43 -52 88 -109 45 -57
89 -110 97 -118 8 -8 14 -17 14 -21 0 -4 15 -23 33 -42 17 -20 48 -56 67 -80
34 -44 49 -63 80 -100 8 -9 26 -32 40 -50 14 -19 41 -52 60 -75 39 -47 63 -77
173 -215 42 -52 85 -105 97 -117 11 -12 20 -25 20 -28 0 -4 6 -12 13 -19 7 -8
29 -33 48 -56 18 -23 39 -47 44 -54 6 -6 53 -65 105 -131 52 -66 97 -122 100
-125 3 -3 32 -39 65 -80 32 -41 62 -77 65 -80 3 -3 21 -25 40 -50 19 -25 42
-54 52 -65 9 -11 48 -58 85 -105 37 -47 72 -90 78 -96 5 -7 21 -26 35 -44 14
-17 33 -41 44 -53 10 -12 30 -38 45 -57 14 -19 34 -44 44 -55 10 -11 37 -45
60 -75 23 -30 47 -60 52 -66 6 -6 21 -25 35 -43 14 -18 42 -51 62 -74 21 -23
38 -45 38 -49 0 -4 8 -15 18 -25 10 -10 63 -74 117 -143 54 -69 113 -141 131
-161 17 -20 36 -45 42 -55 10 -18 101 -19 3412 -19 1871 0 3407 3 3412 6 6 4
10 40 9 85 -2 44 -2 87 -2 97 0 45 1 185 0 252 0 22 0 46 0 53 1 25 2 198 2
230 0 9 0 51 0 92 1 41 0 82 0 90 -1 8 -1 35 -1 60 l1 45 -2198 0 -2197 0 -7
32 c-3 18 -4 35 -1 37 3 3 4 38 3 78 -1 40 -2 80 -2 88 3 69 2 121 -3 128 -2
4 -1 14 4 21 4 8 4 26 0 42 -5 15 -5 44 0 63 4 20 4 38 0 41 -4 3 -5 20 -1 37
7 33 5 92 -4 115 -2 7 0 15 4 18 5 3 5 20 1 39 -4 19 -4 40 0 47 5 7 5 22 0
34 -5 12 -5 27 0 34 4 7 4 28 0 47 -4 19 -4 50 0 69 4 20 4 38 -1 41 -5 3 -6
10 -3 16 9 13 8 134 -1 148 -3 5 -3 10 2 10 8 0 8 113 0 134 -3 7 -2 19 3 26
4 7 4 25 0 41 -5 15 -5 44 0 63 4 20 4 38 -1 41 -4 3 -6 12 -3 20 3 7 6 49 7
92 l2 78 1762 0 c969 0 1765 4 1769 8 10 9 12 974 3 989 -5 7 -573 11 -1770
12 l-1764 1 -2 29 c-1 16 -4 34 -7 41 -2 6 -1 18 4 25 4 7 4 24 0 39 -4 14 -4
35 0 46 4 11 4 34 0 52 -4 18 -5 35 -2 38 7 6 5 112 -2 123 -2 4 -1 14 4 21 4
8 4 25 0 40 -4 14 -4 35 0 46 4 11 4 34 0 52 -4 18 -5 35 -2 38 7 6 5 112 -2
123 -2 4 -1 14 4 21 4 8 4 25 0 40 -4 14 -4 35 0 46 4 11 4 34 0 52 -4 18 -5
35 -2 38 7 6 5 112 -2 123 -2 4 -1 14 4 21 4 8 4 25 0 40 -4 14 -4 35 0 46 4
11 4 34 0 52 -4 18 -5 35 -2 38 3 3 5 31 3 63 -1 31 -2 63 -2 70 1 20 2 40 2
77 0 19 0 41 0 48 0 6 0 26 0 42 -1 17 0 46 2 65 l2 35 2195 0 2195 0 5 35 c3
19 3 49 -1 67 -4 18 -4 35 -1 38 3 3 4 35 3 73 -2 37 -3 75 -2 85 0 32 1 176
0 252 0 22 0 47 0 55 3 83 1 152 -4 159 -3 5 -1 12 3 15 5 3 6 22 3 42 -3 20
-4 72 -1 115 l5 79 -2745 0 -2745 0 2 -52 c3 -69 3 -79 4 -172 0 -44 2 -83 5
-88 3 -4 -1 -8 -8 -8 -9 0 -10 -3 -2 -8 7 -4 8 -15 4 -27 -4 -11 -4 -32 0 -46
4 -15 4 -32 0 -38 -4 -7 -6 -26 -4 -42 2 -16 6 -43 8 -59 2 -17 0 -32 -4 -35
-4 -2 -4 -25 0 -49 4 -25 4 -50 0 -56 -4 -7 -6 -25 -4 -41 2 -16 6 -43 8 -59
2 -17 0 -32 -4 -35 -4 -2 -4 -25 0 -49 4 -25 4 -50 0 -56 -4 -7 -6 -25 -4 -41
2 -16 6 -43 8 -59 2 -17 0 -32 -4 -35 -4 -2 -4 -25 0 -49 4 -25 4 -50 0 -56
-4 -7 -6 -25 -4 -41 2 -16 6 -43 8 -59 2 -17 -1 -33 -5 -36 -5 -3 -7 -9 -5
-13 6 -9 8 -77 3 -111 -2 -14 0 -36 4 -50 3 -14 3 -34 -1 -45 -4 -11 -4 -34 1
-52 4 -21 3 -33 -3 -33 -6 0 -6 -6 1 -14 7 -9 8 -17 3 -20 -6 -3 -7 -20 -2
-40 4 -19 4 -39 0 -46 -4 -6 -6 -25 -4 -41 2 -16 6 -43 8 -59 2 -17 0 -32 -4
-35 -4 -2 -4 -25 0 -49 4 -25 4 -50 0 -56 -4 -7 -6 -25 -4 -41 2 -16 6 -43 8
-59 2 -17 0 -32 -4 -35 -4 -2 -4 -25 0 -49 4 -25 4 -50 0 -56 -4 -7 -6 -24 -4
-38 2 -15 5 -42 7 -60 3 -18 1 -34 -3 -37 -4 -2 -4 -25 0 -49 4 -25 4 -50 0
-56 -4 -7 -6 -25 -4 -41 2 -16 6 -43 8 -59 2 -17 0 -32 -4 -35 -4 -2 -4 -25 0
-49 4 -25 4 -50 0 -56 -4 -6 -5 -28 -2 -48 4 -36 4 -46 3 -122 -1 -19 -1 -43
-1 -52 0 -10 -1 -30 -1 -45 -1 -16 1 -45 3 -66 3 -21 2 -39 -2 -42 -4 -2 -4
-25 0 -49 4 -25 4 -50 0 -56 -4 -7 -6 -25 -4 -41 2 -16 6 -43 8 -59 2 -17 0
-32 -4 -35 -4 -2 -4 -25 0 -49 4 -25 4 -50 0 -56 -4 -7 -5 -26 -3 -43 2 -18 5
-44 7 -60 2 -15 0 -29 -4 -32 -4 -2 -4 -25 0 -49 4 -25 4 -50 0 -56 -4 -7 -5
-26 -3 -43 2 -18 5 -44 7 -60 2 -15 0 -29 -4 -32 -4 -2 -4 -25 0 -49 4 -25 4
-50 0 -56 -4 -7 -6 -25 -4 -41 2 -16 6 -43 8 -59 2 -17 0 -32 -4 -35 -4 -2 -4
-25 0 -49 4 -25 4 -50 0 -56 -4 -7 -6 -25 -4 -41 2 -16 6 -43 8 -59 2 -17 0
-32 -4 -35 -4 -2 -4 -25 0 -49 4 -25 4 -50 0 -56 -4 -7 -6 -25 -4 -41 2 -16 6
-43 8 -59 2 -17 0 -32 -4 -35 -4 -2 -4 -25 0 -49 4 -25 4 -50 0 -56 -4 -7 -6
-25 -4 -41 2 -16 6 -43 8 -59 2 -17 0 -32 -4 -35 -4 -2 -4 -25 0 -49 4 -25 4
-50 0 -56 -4 -7 -6 -24 -4 -38 2 -15 5 -42 7 -60 3 -18 1 -34 -3 -37 -4 -2 -4
-25 0 -49 4 -25 4 -50 0 -56 -4 -7 -6 -25 -4 -41 2 -16 6 -43 8 -59 2 -17 0
-32 -4 -35 -4 -2 -4 -24 0 -49 4 -24 3 -51 -1 -58 -4 -8 -4 -20 0 -27 5 -7 5
-27 1 -45 -4 -17 -4 -40 0 -51 4 -11 4 -27 1 -35 -7 -15 -7 -22 2 -93 2 -21 1
-39 -3 -42 -4 -2 -4 -25 0 -49 4 -25 4 -50 0 -56 -4 -7 -6 -25 -4 -41 2 -16 6
-43 8 -59 2 -17 0 -32 -4 -35 -4 -2 -4 -25 0 -49 4 -25 4 -50 0 -56 -4 -7 -6
-25 -4 -41 2 -16 6 -43 8 -59 2 -17 0 -32 -4 -35 -4 -2 -4 -25 0 -49 4 -25 4
-50 0 -56 -4 -6 -5 -27 -3 -46 2 -19 0 -34 -4 -33 -5 0 -69 77 -143 170 -74
94 -142 178 -150 187 -8 9 -51 62 -95 117 -104 131 -106 133 -136 169 -14 17
-77 94 -138 171 -62 77 -122 152 -134 166 -12 14 -35 43 -52 64 -16 21 -39 48
-50 61 -11 12 -27 32 -35 44 -8 13 -20 28 -25 34 -6 6 -30 36 -55 66 -25 30
-49 60 -55 67 -5 7 -15 18 -20 25 -17 21 -179 221 -192 238 -7 8 -54 67 -105
131 -51 63 -124 153 -161 200 -38 46 -74 91 -80 99 -7 8 -63 77 -124 152 -62
76 -113 140 -113 143 0 3 -10 16 -22 29 -13 13 -30 32 -38 42 -8 11 -42 53
-74 94 -32 41 -64 80 -70 85 -6 6 -24 28 -41 50 -16 22 -34 45 -41 50 -6 6
-22 26 -35 45 -13 19 -28 40 -34 45 -6 6 -28 33 -50 60 -21 28 -43 55 -49 60
-6 6 -24 28 -40 50 -17 22 -33 42 -36 45 -3 3 -42 50 -86 105 -43 55 -81 102
-84 105 -3 3 -16 19 -30 36 -41 52 -73 92 -179 224 -140 174 -145 179 -156
193 -9 9 -170 209 -275 341 -8 10 -22 26 -30 35 -9 9 -29 35 -45 56 -16 22
-36 48 -45 57 -8 9 -20 23 -25 30 -6 7 -50 63 -99 123 -48 61 -97 123 -109
138 -12 15 -29 36 -38 45 -8 9 -42 51 -75 92 -67 85 -85 107 -99 124 -6 6 -37
45 -70 86 -32 41 -61 77 -65 80 -3 3 -17 21 -32 42 -15 20 -33 42 -40 50 -7 7
-31 36 -53 63 -21 28 -42 52 -45 55 -3 3 -18 23 -35 45 -16 21 -39 51 -52 65
-19 21 -144 176 -236 292 -12 16 -31 38 -42 51 -11 13 -33 40 -48 59 -30 40
-220 275 -238 297 -7 7 -34 41 -61 75 -27 33 -56 70 -66 81 -9 11 -43 53 -75
93 -57 72 -70 87 -114 140 -13 15 -23 30 -23 35 0 4 -308 7 -685 7 l-685 0 2
-3172z"/>
<path d="M13252 18946 c7 -8 22 -27 33 -42 11 -16 34 -44 51 -64 17 -19 93
-114 170 -210 76 -96 143 -180 149 -187 5 -7 15 -18 20 -25 6 -7 31 -39 58
-70 26 -31 47 -61 47 -67 0 -6 4 -11 8 -11 4 0 24 -21 44 -48 20 -26 46 -58
58 -72 12 -14 34 -41 49 -60 14 -19 28 -37 32 -40 3 -3 54 -66 113 -140 59
-74 113 -143 121 -152 7 -9 46 -56 85 -105 39 -48 76 -95 83 -103 7 -8 104
-130 216 -270 113 -140 207 -257 210 -260 3 -3 25 -30 48 -60 23 -30 50 -64
60 -75 10 -11 25 -29 33 -41 8 -11 31 -41 52 -65 20 -24 52 -64 72 -89 20 -25
44 -54 53 -65 10 -11 31 -38 48 -60 30 -41 46 -60 79 -98 10 -12 30 -38 45
-57 14 -19 28 -37 32 -40 3 -3 45 -54 93 -115 48 -60 95 -119 104 -130 9 -11
52 -65 96 -120 44 -55 83 -101 88 -103 4 -2 8 -10 8 -18 0 -8 4 -14 8 -14 5 0
23 -19 40 -42 17 -24 41 -55 54 -70 36 -42 51 -60 83 -103 17 -22 45 -56 62
-75 18 -19 33 -38 33 -42 0 -4 12 -21 28 -37 29 -32 30 -33 82 -101 19 -25 37
-47 40 -50 3 -3 124 -153 270 -334 145 -182 269 -337 276 -345 59 -73 171
-212 192 -240 15 -19 37 -45 50 -59 12 -14 22 -28 22 -31 0 -3 15 -22 33 -42
17 -20 44 -52 59 -70 14 -19 61 -77 103 -129 96 -120 88 -109 168 -210 37 -47
76 -94 85 -105 10 -11 80 -99 157 -195 76 -96 142 -177 145 -180 3 -3 30 -36
60 -75 30 -38 59 -75 65 -81 5 -6 24 -28 40 -49 39 -51 236 -294 257 -320 10
-11 46 -56 80 -100 35 -44 72 -91 83 -104 11 -13 29 -35 41 -49 l20 -25 708 0
c389 1 710 4 714 7 3 4 2 10 -4 14 -5 4 -48 54 -94 112 -46 58 -87 107 -90
110 -3 3 -17 21 -32 42 -15 20 -33 42 -40 50 -8 7 -29 33 -48 58 -19 25 -40
51 -48 58 -7 8 -25 30 -40 50 -15 21 -29 39 -32 42 -3 3 -23 27 -45 55 -22 27
-46 57 -53 65 -8 8 -65 80 -129 160 -63 80 -124 156 -136 170 -12 14 -34 42
-50 63 -15 20 -35 45 -45 55 -10 10 -31 36 -47 57 -17 22 -32 42 -36 45 -3 3
-23 28 -45 55 -22 28 -47 59 -56 70 -9 11 -47 58 -84 105 -38 47 -71 87 -74
90 -3 3 -17 21 -30 40 -13 19 -27 37 -31 40 -8 6 -187 227 -215 266 -10 14
-26 34 -35 43 -9 9 -51 61 -95 116 -43 55 -86 109 -95 120 -29 35 -218 269
-247 304 -15 19 -40 50 -57 71 -16 20 -41 51 -55 69 -14 18 -30 38 -35 44 -9
10 -46 56 -223 276 -15 19 -32 39 -37 45 -6 6 -35 43 -65 81 -30 39 -60 76
-67 83 -34 35 -35 52 -6 85 15 18 42 50 58 71 17 21 35 44 40 50 6 6 33 40 60
75 28 35 60 74 73 87 12 13 22 26 22 29 0 4 6 12 13 19 17 18 66 78 197 241
61 77 116 142 121 143 5 2 9 10 9 17 0 7 3 15 8 17 4 2 25 26 47 53 22 28 42
52 45 55 3 3 59 73 125 155 66 83 128 157 137 166 10 9 18 19 18 23 0 6 63 83
136 168 13 15 24 30 24 33 0 3 8 13 18 23 21 23 21 22 221 272 91 113 167 207
171 210 3 3 77 95 165 205 88 110 162 202 165 205 3 3 32 39 65 80 33 41 65
80 70 86 6 6 21 26 35 44 14 18 97 121 185 229 88 109 174 214 190 235 29 37
45 56 86 104 11 13 18 26 15 29 -3 3 -324 6 -713 6 l-708 0 -128 -159 c-71
-87 -138 -172 -150 -187 -12 -16 -27 -34 -32 -40 -6 -7 -37 -46 -70 -87 -53
-67 -145 -180 -178 -220 -6 -8 -41 -51 -76 -95 -35 -44 -67 -82 -71 -85 -4 -3
-11 -13 -16 -22 -5 -9 -26 -36 -46 -60 -20 -24 -96 -117 -168 -208 -72 -91
-143 -179 -158 -195 -15 -17 -40 -49 -57 -70 -16 -22 -34 -45 -40 -51 -5 -6
-23 -28 -40 -49 -39 -49 -171 -214 -194 -241 -10 -11 -42 -52 -71 -90 -29 -38
-58 -73 -64 -79 -6 -5 -33 -39 -61 -75 -27 -36 -52 -67 -55 -70 -3 -3 -21 -25
-40 -50 -41 -53 -65 -82 -102 -124 l-28 -30 -17 24 c-9 13 -25 32 -35 42 -10
10 -18 20 -18 23 0 4 -22 33 -45 59 -6 6 -67 81 -135 166 -68 85 -129 160
-135 167 -5 6 -20 24 -32 40 -12 15 -30 38 -40 49 -10 12 -29 36 -43 55 -14
18 -59 74 -100 125 -41 51 -86 106 -100 124 -14 18 -30 37 -35 44 -6 6 -55 67
-110 136 -55 69 -102 127 -106 130 -3 3 -18 23 -34 45 -17 22 -38 47 -47 56
-10 9 -18 21 -18 27 0 6 -4 12 -9 14 -5 2 -46 50 -92 108 -45 58 -85 107 -88
110 -3 3 -22 25 -41 50 -53 69 -62 80 -97 120 -18 21 -33 40 -33 43 0 4 -12
20 -27 36 -16 16 -33 36 -38 43 -6 7 -91 113 -189 236 l-178 222 -710 0 c-605
0 -707 -2 -696 -14z"/>
<path d="M20959 18948 c-1 -7 -1 -17 0 -22 5 -26 6 -86 1 -86 -6 0 -3 -115 4
-142 2 -10 1 -18 -2 -18 -8 0 -6 -165 2 -186 3 -8 1 -14 -4 -14 -5 0 -5 -13 0
-30 5 -16 6 -30 2 -30 -8 0 -8 -58 1 -66 3 -3 2 -17 -3 -30 -5 -13 -5 -26 -1
-28 5 -3 5 -24 1 -46 -4 -22 -4 -43 1 -46 4 -2 4 -15 -1 -28 -4 -12 -4 -29 0
-36 5 -8 6 -18 3 -23 -8 -13 -9 -87 -1 -87 4 0 3 -13 -2 -28 -17 -62 -94 -58
1097 -57 598 1 1095 -1 1103 -3 14 -3 15 -293 15 -2659 0 -1759 3 -2657 10
-2661 17 -11 1074 -8 1078 3 2 6 3 1204 2 2663 0 1766 3 2652 10 2653 5 1 494
2 1085 3 l1074 1 6 30 c3 17 4 41 0 54 -3 13 -3 50 0 82 3 31 3 68 -1 82 -4
14 -3 30 1 36 3 7 4 32 0 56 -4 24 -4 49 0 54 3 6 3 38 0 71 -3 33 -3 60 0 60
3 0 4 42 3 92 -3 128 -3 141 -2 158 0 13 0 48 0 143 -1 9 -1 27 -2 40 -1 12 0
29 2 37 4 13 -307 15 -2738 18 -2191 2 -2743 0 -2744 -10z"/>
<path d="M30457 15363 c-4 -3 -33 -7 -64 -9 -56 -4 -90 -8 -143 -19 -86 -17
-123 -26 -135 -34 -5 -3 -12 -6 -15 -6 -38 -5 -151 -55 -219 -99 -66 -42 -160
-131 -200 -188 -8 -13 -20 -28 -27 -35 -17 -17 -92 -165 -98 -193 -3 -14 -10
-45 -16 -69 -16 -67 -14 -207 4 -285 23 -96 80 -199 151 -271 58 -60 173 -145
194 -145 6 0 11 -4 11 -10 0 -5 4 -10 10 -10 5 0 35 -12 67 -26 65 -30 223
-85 223 -78 0 2 16 -2 35 -10 19 -8 35 -13 35 -11 0 3 11 0 25 -5 14 -5 36
-12 48 -14 21 -5 46 -11 85 -20 9 -3 42 -12 72 -21 30 -8 66 -18 79 -21 14 -3
28 -7 33 -10 4 -3 16 -7 25 -9 75 -16 207 -71 265 -111 78 -53 101 -81 118
-143 12 -44 11 -153 -1 -181 -37 -88 -87 -145 -172 -197 -32 -19 -63 -36 -70
-37 -7 -1 -17 -4 -22 -8 -6 -4 -49 -14 -95 -24 -170 -34 -405 -1 -523 73 -105
66 -182 187 -190 298 l-2 30 -240 0 -240 -1 3 -59 c3 -75 32 -192 65 -268 88
-198 255 -342 492 -425 33 -12 71 -23 85 -26 14 -2 25 -5 25 -6 0 -1 9 -3 20
-5 108 -20 162 -27 247 -30 55 -3 104 -7 109 -10 5 -4 9 -3 9 2 0 4 30 8 68 8
59 -1 200 15 272 30 51 10 186 56 220 75 19 10 46 24 60 30 73 33 206 156 265
245 85 129 113 233 110 406 -1 68 -5 135 -8 149 -13 52 -52 146 -74 182 -13
21 -23 40 -23 43 0 6 -57 71 -100 113 -45 44 -165 117 -251 154 -86 36 -120
50 -129 53 -3 1 -30 9 -60 19 -59 19 -187 54 -217 59 -10 2 -36 9 -58 15 -22
6 -51 13 -65 16 -14 3 -61 14 -105 26 -44 11 -88 23 -98 25 -31 7 -201 108
-227 135 -78 80 -95 197 -45 315 10 23 17 32 65 84 57 62 136 104 216 116 16
2 40 6 54 9 32 7 206 8 243 1 15 -3 37 -7 50 -9 38 -7 105 -34 149 -60 51 -30
118 -89 118 -105 0 -6 4 -11 9 -11 8 0 43 -79 47 -109 11 -65 -8 -60 232 -60
221 0 257 3 246 21 -3 5 -8 28 -9 51 -8 110 -34 198 -77 265 -15 24 -28 47
-28 51 0 13 -157 171 -170 171 -5 0 -10 4 -10 8 0 7 -64 48 -140 89 -39 21
-117 53 -140 58 -8 2 -33 8 -56 14 -83 22 -152 32 -263 37 -63 3 -118 7 -121
9 -4 3 -10 2 -13 -2z"/>
<path d="M28549 15327 c-1 -1 -3 -441 -4 -977 -2 -536 -6 -985 -9 -997 -8 -30
-15 -58 -20 -83 -17 -75 -91 -159 -176 -199 -49 -23 -67 -26 -165 -26 -100 1
-115 4 -168 29 -81 40 -148 116 -175 200 -12 37 -22 74 -22 84 0 16 -19 17
-240 17 l-241 0 2 -60 c4 -108 45 -241 100 -323 16 -24 29 -45 29 -48 0 -7 59
-72 108 -120 56 -53 202 -127 275 -138 7 -1 17 -4 22 -7 29 -17 166 -33 290
-33 136 0 188 5 253 24 18 5 32 6 32 3 0 -3 7 0 15 7 8 7 15 10 15 7 0 -19
237 102 286 146 7 7 19 17 26 23 94 80 195 250 213 356 3 18 8 40 10 48 2 8 7
35 11 60 7 46 13 1975 6 1997 -3 9 -64 12 -238 12 -129 -1 -235 -2 -235 -2z"/>
<path d="M15377 15267 c-14 -18 -36 -45 -49 -62 -12 -16 -27 -35 -33 -41 -5
-7 -22 -27 -37 -45 -14 -19 -52 -65 -83 -104 -71 -89 -72 -90 -120 -150 -22
-27 -43 -51 -47 -53 -5 -2 -8 -10 -8 -18 0 -8 -4 -14 -8 -14 -4 0 -26 -24 -47
-52 -22 -29 -47 -59 -55 -68 -9 -9 -29 -34 -45 -55 -17 -22 -32 -42 -35 -45
-3 -3 -21 -25 -40 -50 -19 -25 -37 -47 -40 -50 -5 -5 -111 -137 -168 -209 -15
-18 -50 -61 -77 -95 -28 -33 -68 -83 -90 -111 -22 -27 -43 -51 -47 -53 -5 -2
-8 -10 -8 -18 0 -8 -4 -14 -8 -14 -5 0 -21 -18 -38 -41 -16 -22 -36 -48 -45
-57 -8 -9 -33 -39 -55 -67 -54 -69 -66 -84 -88 -108 -10 -12 -30 -38 -45 -57
-14 -19 -28 -37 -31 -40 -5 -4 -72 -87 -93 -115 -4 -5 -17 -21 -28 -35 -11
-14 -30 -38 -42 -53 -12 -15 -31 -38 -42 -51 -11 -12 -31 -37 -45 -56 -14 -18
-32 -41 -41 -51 -8 -10 -24 -30 -35 -44 -10 -15 -28 -37 -39 -49 -31 -36 -58
-68 -87 -108 -15 -20 -33 -42 -40 -50 -7 -7 -74 -89 -148 -183 -74 -93 -139
-173 -145 -177 -13 -10 -50 -9 740 -10 l679 0 19 23 c10 13 35 44 55 68 20 24
43 54 51 65 8 12 18 23 21 26 3 3 24 27 45 55 22 27 47 59 57 70 9 11 32 40
52 65 20 25 42 52 49 60 7 8 76 94 153 190 76 96 141 177 144 180 3 3 23 28
45 55 21 28 42 52 45 55 3 3 21 25 40 50 19 25 37 47 40 50 3 3 23 28 45 55
22 28 43 52 47 53 5 2 8 8 8 13 0 5 8 17 18 27 22 24 45 52 112 137 30 39 57
72 60 75 3 3 23 28 44 55 22 28 46 57 53 65 8 8 48 58 89 110 42 52 90 112
108 134 17 21 35 46 40 55 5 9 13 18 17 21 8 5 -54 83 -255 322 -31 37 -56 70
-56 73 0 3 -8 13 -17 23 -17 18 -62 70 -120 142 -15 19 -32 40 -38 46 -5 6
-21 26 -35 44 -14 18 -35 44 -48 59 -12 14 -46 56 -75 93 -28 37 -57 69 -63
72 -6 2 -22 -10 -37 -27z"/>
<path d="M26605 13206 c-84 -23 -140 -70 -180 -153 -20 -40 -23 -60 -21 -123
5 -111 43 -182 124 -232 58 -36 99 -47 171 -45 206 6 338 225 246 408 -21 41
-84 109 -102 109 -7 0 -13 4 -13 8 0 28 -154 47 -225 28z"/>
</g>
</svg>
