<svg width="55" height="55" viewBox="0 0 55 55" fill="none" xmlns="http://www.w3.org/2000/svg">
<rect x="1.5" y="1.5" width="52" height="52" rx="11.5" fill="#BBF5FF" stroke="#1DAAD6"/>
<path d="M37.2795 15.0406H17.5107C16.6718 15.0406 15.8673 15.3677 15.2741 15.9499C14.6809 16.532 14.3477 17.3217 14.3477 18.145V37.5477C14.3477 38.3711 14.6809 39.1607 15.2741 39.7429C15.8673 40.3251 16.6718 40.6522 17.5107 40.6522H37.2795C37.6949 40.6522 38.1062 40.5719 38.49 40.4159C38.8737 40.2599 39.2224 40.0312 39.5161 39.7429C39.8098 39.4546 40.0428 39.1124 40.2018 38.7358C40.3607 38.3591 40.4426 37.9554 40.4426 37.5477V18.145C40.4426 17.7373 40.3607 17.3337 40.2018 16.957C40.0428 16.5804 39.8098 16.2381 39.5161 15.9499C39.2224 15.6616 38.8737 15.4329 38.49 15.2769C38.1062 15.1209 37.6949 15.0406 37.2795 15.0406ZM33.5235 35.8015H21.2668C20.8997 35.8015 20.5478 35.6584 20.2882 35.4037C20.0287 35.149 19.8829 34.8035 19.8829 34.4433C19.8829 34.0831 20.0287 33.7376 20.2882 33.4829C20.5478 33.2282 20.8997 33.0851 21.2668 33.0851H33.5235C33.8905 33.0851 34.2424 33.2282 34.502 33.4829C34.7615 33.7376 34.9073 34.0831 34.9073 34.4433C34.9073 34.8035 34.7615 35.149 34.502 35.4037C34.2424 35.6584 33.8905 35.8015 33.5235 35.8015ZM44.4398 13.5233C44.5041 13.6677 44.5519 13.8187 44.5822 13.9734C44.6189 14.151 44.6374 14.3317 44.6375 14.5128C44.6371 14.7043 44.5996 14.894 44.5268 15.0716C44.4475 15.2727 44.3278 15.4562 44.1749 15.611C44.001 15.7856 43.8428 15.937 43.7044 16.065L43.3407 16.4104C43.226 16.523 43.1153 16.6238 43.0125 16.7131L38.9045 12.6812L39.5292 12.1108C39.7744 11.8857 39.976 11.7227 40.1342 11.583C40.3234 11.433 40.5392 11.3186 40.7707 11.2454C40.9809 11.1836 41.1998 11.1547 41.4191 11.16C41.6241 11.1674 41.8274 11.2 42.0241 11.2571C42.2004 11.308 42.3723 11.3729 42.5381 11.4511C42.9233 11.6711 43.2693 11.9517 43.5621 12.2815C43.9148 12.6487 44.2069 13.0677 44.428 13.5233H44.4398Z" fill="#54D3E8"/>
<path d="M28.3078 23.4205L28.908 22.8086C29.2258 22.479 29.6259 22.0789 30.0849 21.5964L31.6777 20.0077L33.4392 18.2424L38.1588 13.5508L42.2467 17.6462L37.5389 22.33L35.7971 24.0952C35.2164 24.664 34.6907 25.1818 34.2278 25.6643L33.0705 26.8412C32.7684 27.1432 32.584 27.3198 32.5291 27.3629C32.3839 27.4924 32.2152 27.6297 32.0269 27.7552C31.8465 27.8963 31.6487 28.0136 31.4384 28.1043C31.1473 28.2505 30.8487 28.3814 30.5439 28.4966C30.1516 28.6417 29.7593 28.783 29.3121 28.9203C28.8648 29.0576 28.4764 29.1792 28.092 29.2812C27.7075 29.3832 27.4211 29.4459 27.2328 29.4773C26.8405 29.5204 26.5776 29.4773 26.4482 29.3008C26.3789 29.1838 26.3335 29.0542 26.3146 28.9195C26.2958 28.7848 26.3038 28.6478 26.3383 28.5162C26.389 28.2043 26.4611 27.8963 26.5541 27.5944C26.6639 27.2021 26.7777 26.8098 26.9033 26.394C27.0288 25.9782 27.1465 25.6094 27.2603 25.2525C27.3364 25.0046 27.4322 24.7633 27.5467 24.5307C27.6285 24.3406 27.7269 24.1581 27.8409 23.9854C27.9758 23.7833 28.1323 23.5965 28.3078 23.4284V23.4205Z" fill="#54D3E8"/>
<path d="M37.4297 15.145H36.624L33.659 18.078L31.8502 19.8738L30.2147 21.4899C29.7232 21.9808 29.3123 22.3878 29.0061 22.723L28.3777 23.3535C28.1888 23.5245 28.0199 23.7159 27.8741 23.9241C27.7566 24.1024 27.6555 24.2907 27.572 24.4868C27.4544 24.7234 27.3561 24.9689 27.2779 25.221C27.161 25.5762 27.0362 25.9633 26.9113 26.3823C26.7864 26.8013 26.6655 27.2123 26.5527 27.6034C26.4617 27.8977 26.3904 28.1976 26.3392 28.5012C26.3038 28.6351 26.2955 28.7745 26.3149 28.9115C26.3342 29.0485 26.3809 29.1803 26.452 29.2993C26.585 29.463 26.8549 29.5228 27.2577 29.4789C27.4511 29.447 27.7452 29.3831 28.14 29.2794C28.5348 29.1756 28.9457 29.0519 29.3928 28.9123C29.84 28.7726 30.2549 28.6289 30.6578 28.4813C30.9707 28.3641 31.2773 28.2309 31.5763 28.0822C31.7922 27.99 31.9953 27.8706 32.1806 27.7271C32.3739 27.5794 32.5472 27.4398 32.6962 27.328C32.7526 27.2841 32.942 27.1046 33.2562 26.7973L34.4406 25.6001C34.9159 25.1213 35.4557 24.5945 36.052 24.0039L37.8326 22.2401L40.6525 19.4468V18.3374C40.6525 17.4907 40.313 16.6787 39.7086 16.0801C39.1042 15.4814 38.2844 15.145 37.4297 15.145Z" fill="#1DAAD6"/>
</svg>
