<svg width="150" height="25" viewBox="0 0 150 25" fill="none" xmlns="http://www.w3.org/2000/svg">
<path fill-rule="evenodd" clip-rule="evenodd" d="M24.2608 12.5995L15.7985 0.18805V0H23.8847C25.5772 0 27.0816 0.940255 28.0219 2.44468C28.9622 4.13715 28.9622 6.20574 27.8338 7.71016L24.2608 12.5995ZM14.292 23.1302L0 0.187762H11.0951L19.5575 13.5395C20.1216 14.2917 21.0619 14.6678 22.0022 14.6678H22.9424L17.4889 23.1302C16.7367 24.4466 15.0442 24.2585 14.292 23.1302Z" fill="url(#paint0_linear_1372_2433)"/>
<path d="M149.35 15.1215C149.35 15.4735 149.327 15.8255 149.281 16.1775H140.764C140.81 16.8815 141.001 17.4095 141.338 17.7616C141.69 18.0983 142.134 18.2666 142.669 18.2666C143.419 18.2666 143.955 17.9299 144.276 17.2565H149.074C148.875 18.1442 148.485 18.94 147.904 19.6441C147.337 20.3328 146.618 20.8761 145.746 21.274C144.873 21.672 143.909 21.8709 142.853 21.8709C141.583 21.8709 140.45 21.6031 139.455 21.0674C138.476 20.5318 137.703 19.7665 137.137 18.7717C136.586 17.7769 136.31 16.606 136.31 15.2592C136.31 13.9124 136.586 12.7492 137.137 11.7697C137.688 10.7748 138.453 10.0096 139.432 9.47392C140.427 8.93825 141.567 8.67041 142.853 8.67041C144.123 8.67041 145.248 8.93059 146.228 9.45096C147.207 9.97133 147.972 10.7213 148.523 11.7008C149.074 12.665 149.35 13.8052 149.35 15.1215ZM144.758 13.9965C144.758 13.4456 144.575 13.017 144.207 12.7109C143.84 12.3895 143.381 12.2288 142.83 12.2288C142.279 12.2288 141.827 12.3819 141.475 12.688C141.123 12.9788 140.894 13.4149 140.787 13.9965H144.758Z" fill="#152DAB"/>
<path d="M129.734 8.71606C131.219 8.71606 132.397 9.21348 133.269 10.2083C134.142 11.1878 134.578 12.5193 134.578 14.2029V21.71H130.078V14.7998C130.078 14.0651 129.887 13.4912 129.504 13.078C129.122 12.6494 128.609 12.4352 127.966 12.4352C127.293 12.4352 126.765 12.6494 126.382 13.078C126 13.4912 125.808 14.0651 125.808 14.7998V21.71H121.309V8.83085H125.808V10.6674C126.206 10.0859 126.742 9.61906 127.415 9.26704C128.089 8.89972 128.862 8.71606 129.734 8.71606Z" fill="#152DAB"/>
<path d="M112.708 21.8709C111.422 21.8709 110.267 21.6031 109.241 21.0674C108.231 20.5318 107.435 19.7665 106.854 18.7717C106.272 17.7769 105.981 16.606 105.981 15.2592C105.981 13.9277 106.272 12.7645 106.854 11.7697C107.451 10.7748 108.254 10.0096 109.264 9.47392C110.29 8.93825 111.445 8.67041 112.731 8.67041C114.017 8.67041 115.164 8.93825 116.175 9.47392C117.2 10.0096 118.003 10.7748 118.585 11.7697C119.182 12.7645 119.48 13.9277 119.48 15.2592C119.48 16.5907 119.182 17.7616 118.585 18.7717C118.003 19.7665 117.2 20.5318 116.175 21.0674C115.149 21.6031 113.994 21.8709 112.708 21.8709ZM112.708 17.9682C113.335 17.9682 113.856 17.7386 114.269 17.2795C114.698 16.805 114.912 16.1316 114.912 15.2592C114.912 14.3868 114.698 13.721 114.269 13.2619C113.856 12.8027 113.343 12.5732 112.731 12.5732C112.119 12.5732 111.606 12.8027 111.193 13.2619C110.78 13.721 110.573 14.3868 110.573 15.2592C110.573 16.1469 110.772 16.8203 111.17 17.2795C111.568 17.7386 112.08 17.9682 112.708 17.9682Z" fill="#152DAB"/>
<path d="M85.98 15.2589C85.98 13.9274 86.2172 12.7642 86.6917 11.7694C87.1814 10.7745 87.8472 10.0093 88.689 9.47362C89.5307 8.93795 90.4643 8.67012 91.4898 8.67012C92.3162 8.67012 93.0509 8.84612 93.6937 9.19814C94.3518 9.53485 94.8645 10.0016 95.2318 10.5985V4.72144H99.7544V21.7099H95.2318V19.9193C94.8798 20.5162 94.3824 20.9906 93.7396 21.3426C93.0968 21.6946 92.3392 21.8706 91.4668 21.8706C90.4414 21.8706 89.5078 21.6028 88.666 21.0671C87.8395 20.5315 87.1814 19.7662 86.6917 18.7714C86.2172 17.7613 85.98 16.5904 85.98 15.2589ZM95.2548 15.2589C95.2548 14.4324 95.0252 13.782 94.5661 13.3075C94.1222 12.8331 93.5712 12.5958 92.9131 12.5958C92.2397 12.5958 91.6811 12.8331 91.2372 13.3075C90.7934 13.7667 90.5715 14.4171 90.5715 15.2589C90.5715 16.0854 90.7934 16.7435 91.2372 17.2332C91.6811 17.7077 92.2397 17.9449 92.9131 17.9449C93.5712 17.9449 94.1222 17.7077 94.5661 17.2332C95.0252 16.7588 95.2548 16.1007 95.2548 15.2589Z" fill="#152DAB"/>
<path d="M81.9258 7.6374C81.1299 7.6374 80.4871 7.42313 79.9973 6.99459C79.5229 6.55075 79.2856 5.99977 79.2856 5.34166C79.2856 4.66824 79.5229 4.10961 79.9973 3.66577C80.4871 3.22192 81.1299 3 81.9258 3C82.7063 3 83.3338 3.22192 83.8083 3.66577C84.298 4.10961 84.5429 4.66824 84.5429 5.34166C84.5429 5.99977 84.298 6.55075 83.8083 6.99459C83.3338 7.42313 82.7063 7.6374 81.9258 7.6374ZM84.1526 8.83119V21.7103H79.653V8.83119H84.1526Z" fill="#152DAB"/>
<path d="M77.091 4.72144V21.7099H72.5913V4.72144H77.091Z" fill="#152DAB"/>
<path d="M56.252 15.2592C56.252 13.9277 56.4892 12.7645 56.9636 11.7697C57.4534 10.7748 58.1115 10.0096 58.938 9.47392C59.7797 8.93825 60.7134 8.67041 61.7388 8.67041C62.6265 8.67041 63.3917 8.84642 64.0345 9.19843C64.6773 9.55045 65.1747 10.0249 65.5268 10.6218V8.83111H70.0264V21.7102H65.5268V19.9196C65.1747 20.5164 64.6697 20.9909 64.0116 21.3429C63.3688 21.6949 62.6112 21.8709 61.7388 21.8709C60.7134 21.8709 59.7797 21.6031 58.938 21.0674C58.1115 20.5318 57.4534 19.7665 56.9636 18.7717C56.4892 17.7616 56.252 16.5907 56.252 15.2592ZM65.5268 15.2592C65.5268 14.4327 65.2972 13.7823 64.838 13.3078C64.3942 12.8334 63.8432 12.5961 63.1851 12.5961C62.5117 12.5961 61.9531 12.8334 61.5092 13.3078C61.0654 13.767 60.8434 14.4174 60.8434 15.2592C60.8434 16.0857 61.0654 16.7438 61.5092 17.2335C61.9531 17.708 62.5117 17.9452 63.1851 17.9452C63.8432 17.9452 64.3942 17.708 64.838 17.2335C65.2972 16.7591 65.5268 16.101 65.5268 15.2592Z" fill="#152DAB"/>
<path d="M48.2546 17.4628L50.6651 8.83081H55.4632L51.0324 21.7099H45.4308L41 8.83081H45.7981L48.2546 17.4628Z" fill="#152DAB"/>
<defs>
<linearGradient id="paint0_linear_1372_2433" x1="11.8821" y1="-22.6971" x2="29.9252" y2="20.5615" gradientUnits="userSpaceOnUse">
<stop offset="0.1868" stop-color="#2E88E0"/>
<stop offset="1" stop-color="#1223A5"/>
</linearGradient>
</defs>
</svg>
