<svg width="25" height="24" viewBox="0 0 25 24" fill="none" xmlns="http://www.w3.org/2000/svg">
<path d="M12.2846 10.87C12.1846 10.86 12.0646 10.86 11.9546 10.87C9.57457 10.79 7.68457 8.84 7.68457 6.44C7.68457 3.99 9.66457 2 12.1246 2C14.5746 2 16.5646 3.99 16.5646 6.44C16.5546 8.84 14.6646 10.79 12.2846 10.87Z" stroke="#64748B" stroke-width="1.5" stroke-linecap="round" stroke-linejoin="round"/>
<path d="M7.28473 14.56C4.86473 16.18 4.86473 18.82 7.28473 20.43C10.0347 22.27 14.5447 22.27 17.2947 20.43C19.7147 18.81 19.7147 16.17 17.2947 14.56C14.5547 12.73 10.0447 12.73 7.28473 14.56Z" stroke="#64748B" stroke-width="1.5" stroke-linecap="round" stroke-linejoin="round"/>
</svg>
