<svg width="25" height="24" viewBox="0 0 25 24" fill="none" xmlns="http://www.w3.org/2000/svg">
<g clip-path="url(#clip0_247_3428)">
<path d="M11.3447 2H9.34473C4.34473 2 2.34473 4 2.34473 9V15C2.34473 20 4.34473 22 9.34473 22H15.3447C20.3447 22 22.3447 20 22.3447 15V13" stroke="#808EA0" stroke-width="1.5" stroke-linecap="round" stroke-linejoin="round"/>
<path d="M22.2554 3.55998C21.0254 6.62998 17.9354 10.81 15.3554 12.88L13.7754 14.14C13.5754 14.29 13.3754 14.41 13.1454 14.5C13.1454 14.35 13.1354 14.2 13.1154 14.04C13.0254 13.37 12.7254 12.74 12.1854 12.21C11.6354 11.66 10.9754 11.35 10.2954 11.26C10.1354 11.25 9.97543 11.24 9.81543 11.25C9.90543 11 10.0354 10.77 10.2054 10.58L11.4654 8.99998C13.5354 6.41998 17.7254 3.30998 20.7854 2.07998C21.2554 1.89998 21.7154 2.03998 22.0054 2.32998C22.3054 2.62998 22.4454 3.08998 22.2554 3.55998Z" stroke="#808EA0" stroke-width="1.5" stroke-linecap="round" stroke-linejoin="round"/>
<path d="M13.1551 14.49C13.1551 15.37 12.8151 16.21 12.1851 16.85C11.6951 17.34 11.0351 17.68 10.2451 17.78L8.27509 17.99C7.20509 18.11 6.28509 17.2 6.40509 16.11L6.61509 14.14C6.80509 12.39 8.26509 11.27 9.82509 11.24C9.98509 11.23 10.1451 11.24 10.3051 11.25C10.9851 11.34 11.6451 11.65 12.1951 12.2C12.7351 12.74 13.0351 13.36 13.1251 14.03C13.1451 14.19 13.1551 14.35 13.1551 14.49Z" stroke="#808EA0" stroke-width="1.5" stroke-linecap="round" stroke-linejoin="round"/>
<path d="M16.1953 11.9799C16.1953 9.88994 14.5053 8.18994 12.4053 8.18994" stroke="#808EA0" stroke-width="1.5" stroke-linecap="round" stroke-linejoin="round"/>
</g>
<defs>
<clipPath id="clip0_247_3428">
<rect width="24" height="24" fill="white" transform="translate(0.375)"/>
</clipPath>
</defs>
</svg>
